<?xml version="1.0" standalone="no"?>
<!DOCTYPE svg PUBLIC "-//W3C//DTD SVG 20010904//EN"
 "http://www.w3.org/TR/2001/REC-SVG-20010904/DTD/svg10.dtd">
<svg version="1.0" xmlns="http://www.w3.org/2000/svg"
 width="509.000000pt" height="509.000000pt" viewBox="0 0 509.000000 509.000000"
 preserveAspectRatio="xMidYMid meet">
<metadata>
Created by potrace 1.14, written by Peter Selinger 2001-2017
</metadata>
<g transform="translate(0.000000,509.000000) scale(0.100000,-0.100000)"
fill="#000000" stroke="none">
<path d="M69 4535 c127 -59 185 -172 207 -400 7 -65 10 -2958 4 -3127 -9 -236
-78 -382 -211 -442 l-54 -25 683 0 c396 -1 681 3 678 8 -3 5 -18 12 -33 16
-30 7 -86 46 -116 79 -33 37 -75 140 -90 221 -13 69 -15 294 -13 1695 1 888 6
1631 10 1650 15 76 49 174 70 209 39 61 102 109 176 134 8 3 -295 6 -675 6
l-690 1 54 -25z"/>
<path d="M1585 4540 c84 -33 144 -100 182 -204 42 -116 42 -123 40 -1816 -2
-888 -6 -1631 -11 -1650 -37 -168 -91 -255 -187 -297 -22 -9 -39 -20 -39 -23
0 -3 305 -6 677 -6 429 0 668 3 652 9 -107 41 -176 110 -209 212 -39 118 -39
113 -37 1805 3 1510 4 1640 20 1698 38 141 98 225 192 268 l50 23 -690 0 -690
0 50 -19z"/>
<path d="M5077 1433 c-2 -4 -38 -73 -79 -153 -152 -294 -309 -489 -491 -607
-86 -56 -141 -81 -242 -109 l-80 -22 338 -1 c204 0 346 3 357 9 17 9 24 26 36
95 3 17 9 46 14 65 5 19 18 78 29 130 36 175 90 424 110 509 18 77 21 107 8
84z"/>
<path d="M4064 1288 c-156 -312 -349 -537 -555 -651 -50 -27 -173 -74 -215
-81 -72 -13 -9 -16 307 -14 l344 3 12 25 c6 14 14 39 16 55 3 17 26 122 50
235 25 113 58 264 72 335 30 143 31 150 41 183 4 13 2 22 -4 22 -6 0 -36 -51
-68 -112z"/>
</g>
</svg>
